<svg xmlns="http://www.w3.org/2000/svg" version="1.1" xmlns:xlink="http://www.w3.org/1999/xlink" xmlns:svgjs="http://svgjs.com/svgjs" width="1000" height="1000"><rect width="1000" height="1000" rx="200" ry="200" fill="#36dba0"></rect><g transform="matrix(1,0,0,1,0,0)"><svg xmlns="http://www.w3.org/2000/svg" version="1.1" xmlns:xlink="http://www.w3.org/1999/xlink" xmlns:svgjs="http://svgjs.com/svgjs" width="602.000000pt" height="601.000000pt"><svg version="1.0" xmlns="http://www.w3.org/2000/svg" width="602.000000pt" height="601.000000pt" viewBox="0 0 602.000000 601.000000" preserveAspectRatio="xMidYMid meet">
<metadata>
Created by potrace 1.16, written by Peter Selinger 2001-2019
</metadata>
<g transform="translate(0.000000,601.000000) scale(0.100000,-0.100000)" fill="#000000" stroke="none">
<path d="M2548 5417 c-56 -22 -85 -43 -118 -88 -37 -51 -52 -123 -48 -224 l3
-80 618 -3 617 -2 0 93 c0 52 -6 115 -14 140 -19 62 -67 121 -120 147 -42 20
-62 21 -473 26 -354 4 -434 2 -465 -9z"></path>
<path d="M2388 4905 c-5 -5 -8 -143 -8 -307 l0 -299 -57 -26 c-32 -14 -150
-56 -263 -94 -421 -142 -568 -248 -623 -449 -13 -47 -16 -242 -20 -1369 -4
-827 -2 -1336 4 -1375 27 -170 150 -308 314 -353 72 -19 2381 -32 2475 -14
174 34 300 153 345 326 12 47 14 263 15 1403 2 1237 0 1351 -15 1397 -25 75
-57 125 -117 181 -96 91 -220 151 -518 252 -96 33 -203 72 -237 87 l-63 28 0
303 0 304 -457 0 c-252 0 -528 3 -613 6 -85 4 -158 3 -162 -1z m1251 -1735
l664 0 -6 -742 c-4 -408 -9 -743 -11 -745 -2 -3 -587 -1 -1300 3 l-1296 7 0
487 c0 268 3 603 7 745 l6 258 636 -6 c350 -4 935 -7 1300 -7z"></path>
<path d="M2033 2726 c3 -8 45 -74 93 -147 48 -74 87 -139 87 -144 0 -6 -42
-75 -94 -155 -52 -80 -98 -151 -103 -157 -5 -10 12 -13 77 -13 l85 0 62 96
c34 53 65 93 69 88 4 -5 33 -48 64 -96 l57 -88 81 0 c63 0 80 3 76 13 -3 7
-43 72 -90 144 -47 72 -90 140 -96 151 -10 18 1 39 80 158 50 75 93 143 96
150 4 11 -11 14 -76 14 l-81 0 -55 -85 c-30 -47 -57 -85 -60 -85 -3 0 -30 38
-60 85 l-55 85 -81 0 c-65 0 -80 -3 -76 -14z"></path>
<path d="M2723 2726 c3 -8 47 -78 97 -155 l91 -141 -79 -117 c-43 -65 -91
-137 -106 -160 l-26 -43 84 0 83 0 63 95 c35 53 66 92 70 88 4 -4 32 -47 63
-95 l57 -88 80 0 c44 0 80 3 80 6 0 3 -45 75 -100 161 l-100 155 95 147 c52
81 95 150 95 154 0 4 -35 7 -79 7 l-78 0 -53 -80 c-29 -44 -57 -83 -61 -86 -5
-3 -34 33 -64 80 l-55 86 -81 0 c-66 0 -80 -3 -76 -14z"></path>
<path d="M3414 2724 c3 -8 46 -78 96 -154 l90 -139 -105 -161 -105 -160 85 0
84 0 62 96 c34 52 65 92 69 87 3 -4 31 -46 60 -93 30 -47 59 -88 65 -92 16
-12 155 -9 155 3 0 6 -45 81 -101 166 l-100 156 95 143 c53 79 96 148 96 154
0 12 -139 14 -156 2 -6 -4 -34 -42 -63 -84 -28 -43 -54 -78 -57 -78 -2 0 -29
38 -60 85 l-55 85 -81 0 c-68 0 -79 -2 -74 -16z"></path>
</g>
</svg></svg></g></svg>