<?xml version="1.0" standalone="no"?>
<!DOCTYPE svg PUBLIC "-//W3C//DTD SVG 20010904//EN"
 "http://www.w3.org/TR/2001/REC-SVG-20010904/DTD/svg10.dtd">
<svg version="1.0" xmlns="http://www.w3.org/2000/svg"
 width="200.000000pt" height="200.000000pt" viewBox="0 0 200.000000 200.000000"
 preserveAspectRatio="xMidYMid meet">
<metadata>
Created by potrace 1.14, written by Peter Selinger 2001-2017
</metadata>
<g transform="translate(0.000000,200.000000) scale(0.100000,-0.100000)"
fill="#000000" stroke="none">
<path d="M943 1711 c-36 -22 -50 -44 -56 -87 -5 -33 17 -83 44 -102 16 -11 19
-26 19 -86 l0 -72 -157 -1 c-135 -1 -166 -4 -215 -23 -89 -33 -170 -128 -180
-212 -2 -15 -7 -30 -11 -34 -4 -4 -38 -8 -77 -10 -86 -2 -134 -25 -175 -83
-28 -40 -30 -50 -33 -148 -5 -149 2 -183 48 -235 45 -51 89 -68 179 -68 33 0
61 -3 62 -7 10 -102 75 -195 167 -240 l57 -28 367 -2 c397 -2 421 0 499 52 53
35 97 98 116 167 l16 58 64 0 c74 0 125 19 169 61 45 43 57 97 53 232 -4 109
-6 118 -34 158 -41 58 -90 81 -178 84 l-71 2 -20 63 c-27 86 -96 161 -174 190
-48 18 -81 22 -212 23 l-155 2 -3 69 c-3 65 -1 71 27 100 16 17 31 45 34 62
14 92 -91 164 -170 115z m462 -473 c41 -22 71 -56 89 -100 13 -31 15 -85 13
-330 -2 -266 -4 -296 -21 -328 -21 -40 -47 -65 -91 -88 -26 -14 -80 -16 -389
-17 -357 -2 -359 -2 -405 22 -51 25 -81 59 -99 112 -15 43 -16 560 -2 613 13
45 51 93 94 116 25 14 68 18 241 22 309 7 533 -1 570 -22z m-1045 -260 c4 -5
5 -263 1 -315 -1 -9 -18 -13 -50 -13 -40 0 -54 5 -80 29 -31 29 -31 29 -31
134 0 98 2 108 25 136 14 16 36 31 48 34 33 5 81 3 87 -5z m1395 -8 c34 -18
45 -59 45 -164 0 -81 -3 -94 -24 -121 -21 -26 -29 -29 -82 -30 l-58 0 -1 155
c0 85 1 160 3 166 4 14 87 10 117 -6z"/>
<path d="M710 1131 c-53 -28 -75 -64 -75 -124 0 -140 157 -197 254 -93 34 36
40 118 12 164 -43 68 -123 90 -191 53z m123 -70 c9 -9 19 -32 22 -50 5 -46
-39 -92 -81 -85 -46 7 -52 11 -69 43 -14 27 -14 35 -1 66 23 54 87 67 129 26z"/>
<path d="M1164 1136 c-106 -46 -112 -194 -12 -257 73 -45 186 -1 209 83 33
124 -81 224 -197 174z m85 -57 c68 -24 72 -117 6 -145 -55 -22 -103 5 -110 63
-4 33 18 71 48 83 12 5 22 9 23 9 1 1 15 -4 33 -10z"/>
<path d="M776 759 c-113 -31 -126 -194 -20 -244 54 -26 435 -25 489 1 66 31
90 127 49 191 -35 54 -52 58 -279 59 -115 0 -223 -3 -239 -7z m98 -116 c-1
-26 -3 -56 -3 -66 -2 -29 -92 -16 -113 17 -13 19 -8 73 8 86 19 17 86 29 99
19 6 -5 10 -30 9 -56z m179 58 c4 -1 7 -32 7 -70 l0 -69 -60 0 -60 1 0 68 c0
78 4 80 113 70z m185 -28 c36 -50 -10 -117 -77 -111 l-35 4 -1 64 c0 57 3 66
20 71 27 8 77 -7 93 -28z"/>
</g>
</svg>
